<svg width="150" height="132" viewBox="0 0 150 132" xmlns="http://www.w3.org/2000/svg">
    <g fill="none" fill-rule="evenodd">
        <path d="M79.743 47.13c-2.609-1.507-6.878-1.507-9.487 0L1.948 86.568c-2.61 1.506-2.595 3.947.03 5.425l68.249 38.412c2.625 1.477 6.921 1.477 9.546 0l68.25-38.412c2.624-1.478 2.638-3.92.03-5.425L79.742 47.13z" fill="#FF8F52" opacity=".2"/>
        <path d="M54.049 95.677v-5.562h2.636c.779-.757 1.729-1.47 2.853-2.12 7.323-4.232 19.308-4.238 26.634-.012 1.132.653 2.088 1.37 2.87 2.132h2.626v5.562c-.002 2.784-1.832 5.57-5.49 7.682-7.322 4.232-19.307 4.238-26.633.012-3.666-2.114-5.498-4.904-5.496-7.694z" stroke="#33475C" stroke-width="5" stroke-linecap="round" stroke-linejoin="round"/>
        <path d="M86.178 97.797c7.323-4.231 7.32-11.15-.006-15.376-7.326-4.226-19.311-4.22-26.633.011-7.323 4.233-7.32 11.153.007 15.377 7.326 4.225 19.31 4.22 26.633-.011z" stroke="#33475C" stroke-width="5" stroke-linecap="round" stroke-linejoin="round"/>
        <path d="M70.043 78.714l5.632.541v8.281h-.001c0 .417-.274.834-.821 1.151-1.096.633-2.891.634-3.987.001-.55-.316-.823-.734-.823-1.152v-8.822z" stroke="#33475C" stroke-width="5" stroke-linecap="round" stroke-linejoin="round"/>
        <path d="M72.684 81.384c23.609 0 42.816-19.208 42.816-42.817 0-7.605-2.019-15.075-5.841-21.601l-3.804 2.227c3.425 5.85 5.236 12.55 5.236 19.374 0 21.178-17.23 38.408-38.407 38.408-13.741 0-26.523-7.417-33.358-19.356l-3.826 2.19c7.618 13.308 21.866 21.575 37.184 21.575z" stroke="#33475C" stroke-width="5" stroke-linecap="round" stroke-linejoin="round"/>
        <path d="M36.656 38.415c0 19.835 16.08 35.915 35.915 35.915s35.915-16.08 35.915-35.915S92.406 2.5 72.571 2.5 36.656 18.58 36.656 38.415z" stroke="#33475C" stroke-width="5" stroke-linecap="round" stroke-linejoin="round"/>
        <path d="M86.955 16.184s.15-3.428-4.62-4.248c-4.77-.82-4.1 2.012-2.535 2.832 1.565.82 7.528 6.708 7.155 1.416zM50.567 55.013s6.037 9.491 3.726 9.478c-2.31-.013-4.918-.609-3.726-9.478zM96.028 11.257c-.342.082-4.517 1.13-4.303 2.99.223 1.936 4.621 6.985 7.676 7.665 3.056.681 6.187 7.314 4.585 12.158-1.596 4.824 1.036 11.337 3.497 12.647.632-2.669 1.003-5.44 1.003-8.302 0-10.86-4.84-20.572-12.458-27.158zM80.397 30.344c-2.684-1.043-5.889-4.174-2.982-5.143 2.907-.968 2.907-4.248 0-4.769-2.907-.522-5.068-4.919-4.396-7.155.67-2.236-5.515-2.385-8.571-2.98-3.056-.598-1.714-2.163-3.205-3.057-1.37-.82-6.344.241-7.151.421-8.401 5.06-14.577 13.43-16.658 23.332-.386 1.841.669 4.506 2.866 5.24 2.236.744 4.248-5.218 5.963-7.529 1.714-2.31 5.738-2.683 5.813.448.074 3.13-2.608 5.813.074 5.887 2.683.075 7.826-8.496 7.975-4.024.149 4.472-10.36 8.496-10.956 9.763-.596 1.267 1.416 4.174 4.8 6.56 3.385 2.384 3.25 10.21 3.696 12.967.448 2.757 7.975 4.621 10.957 4.1 2.98-.523.52-4.324-.224-5.814-.746-1.49 1.192-2.162 1.354-5.59.162-3.428-3.292-9.54-.385-8.198 2.905 1.341 8.271 1.863 9.166 1.158.895-.705-.148-.86 4.92-4.81 5.068-3.95-.373-9.764-3.056-10.807zM86.132 5.169l-.07.133s-2.917 4.397-.527 4.546c2.366.148 7.144-1.101 7.236-1.125-2.067-1.409-4.293-2.596-6.639-3.554zM102.737 57.86c-.137-.061-2.812-1.251-4.762-.09-2.002 1.193-3.492 3.057-5.206 2.759 0 0-4.547-2.982-4.174 0 .372 2.98.372 3.577 4.174 2.683 3.746-.882 6.544-.867 7.357-1.778.946-1.131 1.808-2.33 2.611-3.573z" stroke="#33475C" stroke-width="5" stroke-linecap="round" stroke-linejoin="round"/>
        <path d="M36.656 38.415c0 19.835 16.08 35.915 35.915 35.915s35.915-16.08 35.915-35.915S92.406 2.5 72.571 2.5 36.656 18.58 36.656 38.415z" stroke="#33475C" stroke-width="5" stroke-linecap="round" stroke-linejoin="round"/>
        <path d="M54.049 95.677v-5.562h2.636c.779-.757 1.729-1.47 2.853-2.12 7.323-4.232 19.308-4.238 26.634-.012 1.132.653 2.088 1.37 2.87 2.132h2.626v5.562c-.002 2.784-1.832 5.57-5.49 7.682-7.322 4.232-19.307 4.238-26.633.012-3.666-2.114-5.498-4.904-5.496-7.694" fill="#F6C364"/>
        <path d="M54.049 95.677v-5.562h2.636c.779-.757 1.729-1.47 2.853-2.12 7.323-4.232 19.308-4.238 26.634-.012 1.132.653 2.088 1.37 2.87 2.132h2.626v5.562c-.002 2.784-1.832 5.57-5.49 7.682-7.322 4.232-19.307 4.238-26.633.012-3.666-2.114-5.498-4.904-5.496-7.694z" stroke="#33475C"/>
        <path d="M86.178 97.797c7.323-4.231 7.32-11.15-.006-15.376-7.326-4.226-19.311-4.22-26.633.011-7.323 4.233-7.32 11.153.007 15.377 7.326 4.225 19.31 4.22 26.633-.011" fill="#FBE1B2"/>
        <path d="M86.178 97.797c7.323-4.231 7.32-11.15-.006-15.376-7.326-4.226-19.311-4.22-26.633.011-7.323 4.233-7.32 11.153.007 15.377 7.326 4.225 19.31 4.22 26.633-.011z" stroke="#33475C"/>
        <path d="M70.043 78.714l5.632.541v8.281h-.001c0 .417-.274.834-.821 1.151-1.096.633-2.891.634-3.987.001-.55-.316-.823-.734-.823-1.152v-8.822z" fill="#F6C364"/>
        <path d="M70.043 78.714l5.632.541v8.281h-.001c0 .417-.274.834-.821 1.151-1.096.633-2.891.634-3.987.001-.55-.316-.823-.734-.823-1.152v-8.822z" stroke="#33475C"/>
        <path d="M72.684 81.384c23.609 0 42.816-19.208 42.816-42.817 0-7.605-2.019-15.075-5.841-21.601l-3.804 2.227c3.425 5.85 5.236 12.55 5.236 19.374 0 21.178-17.23 38.408-38.407 38.408-13.741 0-26.523-7.417-33.358-19.356l-3.826 2.19c7.618 13.308 21.866 21.575 37.184 21.575" fill="#F6C364"/>
        <path d="M72.684 81.384c23.609 0 42.816-19.208 42.816-42.817 0-7.605-2.019-15.075-5.841-21.601l-3.804 2.227c3.425 5.85 5.236 12.55 5.236 19.374 0 21.178-17.23 38.408-38.407 38.408-13.741 0-26.523-7.417-33.358-19.356l-3.826 2.19c7.618 13.308 21.866 21.575 37.184 21.575z" stroke="#33475C" stroke-linecap="round" stroke-linejoin="round"/>
        <path d="M36.656 38.415c0 19.835 16.08 35.915 35.915 35.915s35.915-16.08 35.915-35.915S92.406 2.5 72.571 2.5 36.656 18.58 36.656 38.415" fill="#E5F5F8"/>
        <path d="M86.955 16.184s.15-3.428-4.62-4.248c-4.77-.82-4.1 2.012-2.535 2.832 1.565.82 7.528 6.708 7.155 1.416M50.567 55.013s6.037 9.491 3.726 9.478c-2.31-.013-4.918-.609-3.726-9.478M96.028 11.257c-.342.082-4.517 1.13-4.303 2.99.223 1.936 4.621 6.985 7.676 7.665 3.056.681 6.187 7.314 4.585 12.158-1.596 4.824 1.036 11.337 3.497 12.647.632-2.669 1.003-5.44 1.003-8.302 0-10.86-4.84-20.572-12.458-27.158M80.397 30.344c-2.684-1.043-5.889-4.174-2.982-5.143 2.907-.968 2.907-4.248 0-4.769-2.907-.522-5.068-4.919-4.396-7.155.67-2.236-5.515-2.385-8.571-2.98-3.056-.598-1.714-2.163-3.205-3.057-1.37-.82-6.344.241-7.151.421-8.401 5.06-14.577 13.43-16.658 23.332-.386 1.841.669 4.506 2.866 5.24 2.236.744 4.248-5.218 5.963-7.529 1.714-2.31 5.738-2.683 5.813.448.074 3.13-2.608 5.813.074 5.887 2.683.075 7.826-8.496 7.975-4.024.149 4.472-10.36 8.496-10.956 9.763-.596 1.267 1.416 4.174 4.8 6.56 3.385 2.384 3.25 10.21 3.696 12.967.448 2.757 7.975 4.621 10.957 4.1 2.98-.523.52-4.324-.224-5.814-.746-1.49 1.192-2.162 1.354-5.59.162-3.428-3.292-9.54-.385-8.198 2.905 1.341 8.271 1.863 9.166 1.158.895-.705-.148-.86 4.92-4.81 5.068-3.95-.373-9.764-3.056-10.807M86.132 5.169l-.07.133s-2.917 4.397-.527 4.546c2.366.148 7.144-1.101 7.236-1.125-2.067-1.409-4.293-2.596-6.639-3.554M102.737 57.86c-.137-.061-2.812-1.251-4.762-.09-2.002 1.193-3.492 3.057-5.206 2.759 0 0-4.547-2.982-4.174 0 .372 2.98.372 3.577 4.174 2.683 3.746-.882 6.544-.867 7.357-1.778.946-1.131 1.808-2.33 2.611-3.573" fill="#BDEEE8"/>
        <path d="M36.656 38.415c0 19.835 16.08 35.915 35.915 35.915s35.915-16.08 35.915-35.915S92.406 2.5 72.571 2.5 36.656 18.58 36.656 38.415z" stroke="#33475C"/>
    </g>
</svg>
